<svg width="512" height="512" viewBox="0 0 512 512" fill="none" xmlns="http://www.w3.org/2000/svg">
<path d="M264 345.6V335.904C241.807 326.657 223.503 310.007 212.203 288.786C200.903 267.564 197.304 243.084 202.02 219.508C206.735 195.933 219.472 174.719 238.065 159.477C256.658 144.234 279.958 135.904 304 135.904C328.042 135.904 351.342 144.234 369.935 159.477C388.528 174.719 401.265 195.933 405.98 219.508C410.695 243.084 407.097 267.564 395.797 288.786C384.496 310.007 366.193 326.657 344 335.904V345.6C368.508 348.704 392.133 356.745 413.446 369.237C434.758 381.729 453.317 398.413 468 418.28C488.939 388.282 501.249 353.116 503.591 316.608C505.933 280.1 498.217 243.649 481.282 211.222C464.347 178.794 438.842 151.633 407.543 132.694C376.244 113.754 340.35 103.762 303.767 103.805C267.184 103.848 231.314 113.924 200.059 132.937C168.805 151.95 143.364 179.17 126.505 211.637C109.646 244.104 102.015 280.573 104.442 317.076C106.87 353.578 119.262 388.716 140.272 418.664C154.945 398.814 173.46 382.117 194.715 369.565C215.97 357.014 239.532 348.864 264 345.6V345.6Z" fill="#71D8C2"/>
<path d="M335.28 360.728C333.285 360.548 331.431 359.626 330.083 358.145C328.735 356.663 327.992 354.73 328 352.728V330.4C327.999 328.746 328.511 327.132 329.465 325.781C330.419 324.43 331.769 323.408 333.328 322.856C352.9 315.937 369.397 302.322 379.902 284.417C390.406 266.512 394.243 245.469 390.733 225.009C387.223 204.548 376.593 185.987 360.722 172.606C344.85 159.226 324.759 151.887 304 151.887C283.241 151.887 263.15 159.226 247.278 172.606C231.407 185.987 220.777 204.548 217.267 225.009C213.757 245.469 217.593 266.512 228.098 284.417C238.603 302.322 255.099 315.937 274.672 322.856C276.231 323.408 277.58 324.43 278.534 325.781C279.489 327.132 280.001 328.746 280 330.4V352.8C280.008 354.802 279.265 356.735 277.917 358.217C276.569 359.698 274.714 360.62 272.72 360.8C248.387 363.049 224.836 370.577 203.711 382.86C182.585 395.143 164.392 411.885 150.4 431.92C169.155 454.492 192.654 472.653 219.225 485.112C245.796 497.571 274.786 504.02 304.133 504.002C333.48 503.984 362.462 497.498 389.018 485.006C415.573 472.514 439.049 454.323 457.776 431.728C443.815 411.633 425.605 394.856 404.435 382.586C383.266 370.316 359.656 362.853 335.28 360.728V360.728Z" fill="#71D8C2"/>
<path d="M280 160H120C117.878 160 115.843 160.843 114.343 162.343C112.843 163.843 112 165.878 112 168C112 170.122 112.843 172.157 114.343 173.657C115.843 175.157 117.878 176 120 176H280C282.122 176 284.157 175.157 285.657 173.657C287.157 172.157 288 170.122 288 168C288 165.878 287.157 163.843 285.657 162.343C284.157 160.843 282.122 160 280 160Z" fill="#009C75"/>
<path d="M280 200H120C117.878 200 115.843 200.843 114.343 202.343C112.843 203.843 112 205.878 112 208C112 210.122 112.843 212.157 114.343 213.657C115.843 215.157 117.878 216 120 216H280C282.122 216 284.157 215.157 285.657 213.657C287.157 212.157 288 210.122 288 208C288 205.878 287.157 203.843 285.657 202.343C284.157 200.843 282.122 200 280 200Z" fill="#009C75"/>
<path d="M280 240H120C117.878 240 115.843 240.843 114.343 242.343C112.843 243.843 112 245.878 112 248C112 250.122 112.843 252.157 114.343 253.657C115.843 255.157 117.878 256 120 256H280C282.122 256 284.157 255.157 285.657 253.657C287.157 252.157 288 250.122 288 248C288 245.878 287.157 243.843 285.657 242.343C284.157 240.843 282.122 240 280 240Z" fill="#009C75"/>
<path d="M304 8H64C57.6348 8 51.5303 10.5286 47.0294 15.0294C42.5286 19.5303 40 25.6348 40 32V80H32C25.6348 80 19.5303 82.5286 15.0294 87.0294C10.5286 91.5303 8 97.6348 8 104C8 110.365 10.5286 116.47 15.0294 120.971C19.5303 125.471 25.6348 128 32 128H40V184H32C25.6348 184 19.5303 186.529 15.0294 191.029C10.5286 195.53 8 201.635 8 208C8 214.365 10.5286 220.47 15.0294 224.971C19.5303 229.471 25.6348 232 32 232H40V288H32C25.6348 288 19.5303 290.529 15.0294 295.029C10.5286 299.53 8 305.635 8 312C8 318.365 10.5286 324.47 15.0294 328.971C19.5303 333.471 25.6348 336 32 336H40V384C40 390.365 42.5286 396.47 47.0294 400.971C51.5303 405.471 57.6348 408 64 408H304C310.365 408 316.47 405.471 320.971 400.971C325.471 396.47 328 390.365 328 384V32C328 25.6348 325.471 19.5303 320.971 15.0294C316.47 10.5286 310.365 8 304 8V8ZM32 112C29.8783 112 27.8434 111.157 26.3431 109.657C24.8429 108.157 24 106.122 24 104C24 101.878 24.8429 99.8434 26.3431 98.3431C27.8434 96.8429 29.8783 96 32 96H64C66.1217 96 68.1566 96.8429 69.6569 98.3431C71.1571 99.8434 72 101.878 72 104C72 106.122 71.1571 108.157 69.6569 109.657C68.1566 111.157 66.1217 112 64 112H32ZM32 216C29.8783 216 27.8434 215.157 26.3431 213.657C24.8429 212.157 24 210.122 24 208C24 205.878 24.8429 203.843 26.3431 202.343C27.8434 200.843 29.8783 200 32 200H64C66.1217 200 68.1566 200.843 69.6569 202.343C71.1571 203.843 72 205.878 72 208C72 210.122 71.1571 212.157 69.6569 213.657C68.1566 215.157 66.1217 216 64 216H32ZM32 320C29.8783 320 27.8434 319.157 26.3431 317.657C24.8429 316.157 24 314.122 24 312C24 309.878 24.8429 307.843 26.3431 306.343C27.8434 304.843 29.8783 304 32 304H64C66.1217 304 68.1566 304.843 69.6569 306.343C71.1571 307.843 72 309.878 72 312C72 314.122 71.1571 316.157 69.6569 317.657C68.1566 319.157 66.1217 320 64 320H32ZM312 384C312 386.122 311.157 388.157 309.657 389.657C308.157 391.157 306.122 392 304 392H64C61.8783 392 59.8434 391.157 58.3431 389.657C56.8429 388.157 56 386.122 56 384V336H64C70.3652 336 76.4697 333.471 80.9706 328.971C85.4714 324.47 88 318.365 88 312C88 305.635 85.4714 299.53 80.9706 295.029C76.4697 290.529 70.3652 288 64 288H56V232H64C70.3652 232 76.4697 229.471 80.9706 224.971C85.4714 220.47 88 214.365 88 208C88 201.635 85.4714 195.53 80.9706 191.029C76.4697 186.529 70.3652 184 64 184H56V128H64C70.3652 128 76.4697 125.471 80.9706 120.971C85.4714 116.47 88 110.365 88 104C88 97.6348 85.4714 91.5303 80.9706 87.0294C76.4697 82.5286 70.3652 80 64 80H56V32C56 29.8783 56.8429 27.8434 58.3431 26.3431C59.8434 24.8429 61.8783 24 64 24H304C306.122 24 308.157 24.8429 309.657 26.3431C311.157 27.8434 312 29.8783 312 32V384Z" fill="#009C75"/>
</svg>
