<svg width="512" height="512" viewBox="0 0 512 512" fill="none" xmlns="http://www.w3.org/2000/svg">
<path d="M472 104H120C113.635 104 107.53 106.529 103.029 111.029C98.5286 115.53 96 121.635 96 128V480C96 486.365 98.5286 492.47 103.029 496.971C107.53 501.471 113.635 504 120 504H472C478.365 504 484.47 501.471 488.971 496.971C493.471 492.47 496 486.365 496 480V128C496 121.635 493.471 115.53 488.971 111.029C484.47 106.529 478.365 104 472 104V104ZM480 480C480 482.122 479.157 484.157 477.657 485.657C476.157 487.157 474.122 488 472 488H120C117.878 488 115.843 487.157 114.343 485.657C112.843 484.157 112 482.122 112 480V128C112 125.878 112.843 123.843 114.343 122.343C115.843 120.843 117.878 120 120 120H472C474.122 120 476.157 120.843 477.657 122.343C479.157 123.843 480 125.878 480 128V480Z" fill="#71D8C2"/>
<path d="M328.312 263.664L296 194.832L263.688 263.632C263.13 264.822 262.288 265.855 261.236 266.642C260.184 267.429 258.955 267.945 257.656 268.144L184.6 279.344L237.728 333.8C238.602 334.696 239.253 335.785 239.63 336.978C240.006 338.172 240.097 339.437 239.896 340.672L227.44 417.024L292.136 381.272C293.318 380.615 294.648 380.27 296 380.27C297.352 380.27 298.682 380.615 299.864 381.272L364.56 417.024L352.104 340.664C351.903 339.429 351.994 338.164 352.371 336.97C352.747 335.777 353.398 334.688 354.272 333.792L407.4 279.336L334.344 268.136C333.049 267.941 331.823 267.431 330.771 266.652C329.719 265.872 328.875 264.846 328.312 263.664V263.664Z" fill="#71D8C2"/>
<path d="M440 136H152C145.635 136 139.53 138.529 135.029 143.029C130.529 147.53 128 153.635 128 160V448C128 454.365 130.529 460.47 135.029 464.971C139.53 469.471 145.635 472 152 472H440C446.365 472 452.47 469.471 456.971 464.971C461.471 460.47 464 454.365 464 448V160C464 153.635 461.471 147.53 456.971 143.029C452.47 138.529 446.365 136 440 136ZM429.728 279.368L368.544 342.072L383.008 430.712C383.25 432.194 383.069 433.714 382.488 435.099C381.906 436.483 380.946 437.676 379.719 438.54C378.491 439.405 377.045 439.907 375.545 439.988C374.046 440.069 372.554 439.727 371.24 439L296 397.408L220.76 439.008C219.446 439.735 217.954 440.077 216.455 439.996C214.955 439.915 213.509 439.413 212.281 438.548C211.054 437.684 210.094 436.491 209.512 435.107C208.931 433.722 208.75 432.202 208.992 430.72L223.456 342.08L162.272 279.376C161.247 278.323 160.532 277.008 160.205 275.575C159.878 274.142 159.952 272.647 160.419 271.254C160.886 269.86 161.728 268.622 162.852 267.676C163.976 266.729 165.339 266.111 166.792 265.888L251.016 253.016L288.8 172.6C289.446 171.226 290.47 170.064 291.752 169.25C293.034 168.436 294.521 168.003 296.04 168.003C297.559 168.003 299.046 168.436 300.328 169.25C301.61 170.064 302.634 171.226 303.28 172.6L341.024 253.008L425.248 265.88C426.697 266.109 428.056 266.732 429.175 267.681C430.294 268.63 431.131 269.868 431.593 271.26C432.056 272.653 432.126 274.146 431.797 275.576C431.468 277.006 430.752 278.318 429.728 279.368V279.368Z" fill="#71D8C2"/>
<path d="M392 40H352V16C352 13.8783 351.157 11.8434 349.657 10.3431C348.157 8.84285 346.122 8 344 8C341.878 8 339.843 8.84285 338.343 10.3431C336.843 11.8434 336 13.8783 336 16V40H96V16C96 13.8783 95.1571 11.8434 93.6569 10.3431C92.1566 8.84285 90.1217 8 88 8C85.8783 8 83.8434 8.84285 82.3431 10.3431C80.8429 11.8434 80 13.8783 80 16V40H40C33.6348 40 27.5303 42.5286 23.0294 47.0294C18.5286 51.5303 16 57.6348 16 64V312C16.0458 313.233 16.3551 314.443 16.907 315.546C17.459 316.65 18.2408 317.623 19.2 318.4L115.2 390.4C116.629 391.35 118.286 391.903 120 392H392C398.365 392 404.47 389.471 408.971 384.971C413.471 380.47 416 374.365 416 368V64C416 57.6348 413.471 51.5303 408.971 47.0294C404.47 42.5286 398.365 40 392 40ZM32 64C32 61.8783 32.8429 59.8434 34.3431 58.3431C35.8434 56.8429 37.8783 56 40 56H80V80C80 82.1217 80.8429 84.1566 82.3431 85.6569C83.8434 87.1571 85.8783 88 88 88C90.1217 88 92.1566 87.1571 93.6569 85.6569C95.1571 84.1566 96 82.1217 96 80V56H336V80C336 82.1217 336.843 84.1566 338.343 85.6569C339.843 87.1571 341.878 88 344 88C346.122 88 348.157 87.1571 349.657 85.6569C351.157 84.1566 352 82.1217 352 80V56H392C394.122 56 396.157 56.8429 397.657 58.3431C399.157 59.8434 400 61.8783 400 64V120H32V64ZM112 368L48 320H112V368ZM400 368C400 370.122 399.157 372.157 397.657 373.657C396.157 375.157 394.122 376 392 376H128V312C128 309.878 127.157 307.843 125.657 306.343C124.157 304.843 122.122 304 120 304H32V136H400V368Z" fill="#009C75"/>
<path d="M161.152 275.088L150.944 334.608C150.692 336.079 150.856 337.592 151.419 338.974C151.982 340.357 152.92 341.555 154.127 342.432C155.335 343.309 156.764 343.831 158.253 343.938C159.742 344.046 161.231 343.735 162.552 343.04L216 314.944L269.448 343.04C270.769 343.735 272.258 344.046 273.747 343.938C275.236 343.831 276.665 343.309 277.873 342.432C279.08 341.555 280.018 340.357 280.581 338.974C281.144 337.592 281.308 336.079 281.056 334.608L270.848 275.088L314.096 232.936C315.163 231.894 315.918 230.573 316.274 229.124C316.631 227.675 316.575 226.156 316.113 224.737C315.651 223.318 314.802 222.057 313.661 221.095C312.52 220.134 311.133 219.511 309.656 219.296L249.896 210.608L223.2 156.464C222.465 155.217 221.417 154.183 220.16 153.464C218.903 152.746 217.48 152.368 216.032 152.368C214.584 152.368 213.161 152.746 211.904 153.464C210.647 154.183 209.599 155.217 208.864 156.464L182.136 210.608L122.376 219.296C120.899 219.511 119.512 220.134 118.371 221.095C117.23 222.057 116.381 223.318 115.919 224.737C115.457 226.156 115.401 227.675 115.758 229.124C116.114 230.573 116.869 231.894 117.936 232.936L161.152 275.088ZM188.56 225.84C189.844 225.654 191.063 225.158 192.112 224.396C193.162 223.633 194.01 222.627 194.584 221.464L216 178.08L237.416 221.464C237.99 222.627 238.838 223.633 239.888 224.396C240.937 225.158 242.156 225.654 243.44 225.84L291.32 232.8L256.672 266.568C255.744 267.474 255.05 268.592 254.65 269.825C254.251 271.058 254.156 272.37 254.376 273.648L262.544 321.336L219.728 298.824C218.579 298.219 217.299 297.902 216 297.902C214.701 297.902 213.421 298.219 212.272 298.824L169.456 321.336L177.6 273.648C177.82 272.37 177.726 271.058 177.326 269.825C176.926 268.592 176.232 267.474 175.304 266.568L140.68 232.8L188.56 225.84Z" fill="#009C75"/>
</svg>
