<svg width="512" height="512" viewBox="0 0 512 512" fill="none" xmlns="http://www.w3.org/2000/svg">
<path d="M480 168H128C121.635 168 115.53 170.529 111.029 175.029C106.529 179.53 104 185.635 104 192V416C104 422.365 106.529 428.47 111.029 432.971C115.53 437.471 121.635 440 128 440H233.368C234.42 439.999 235.462 440.206 236.433 440.608C237.405 441.01 238.288 441.6 239.032 442.344L298.344 501.656C299.844 503.156 301.879 503.998 304 503.998C306.121 503.998 308.156 503.156 309.656 501.656L368.968 442.344C369.712 441.6 370.595 441.01 371.567 440.608C372.538 440.206 373.58 439.999 374.632 440H480C486.365 440 492.47 437.471 496.971 432.971C501.471 428.47 504 422.365 504 416V192C504 185.635 501.471 179.53 496.971 175.029C492.47 170.529 486.365 168 480 168ZM264 208C271.911 208 279.645 210.346 286.223 214.741C292.801 219.136 297.928 225.384 300.955 232.693C303.983 240.002 304.775 248.044 303.231 255.804C301.688 263.563 297.878 270.69 292.284 276.284C286.69 281.878 279.563 285.688 271.804 287.231C264.044 288.775 256.002 287.983 248.693 284.955C241.384 281.928 235.136 276.801 230.741 270.223C226.346 263.645 224 255.911 224 248C224.013 237.395 228.231 227.228 235.73 219.73C243.228 212.231 253.395 208.013 264 208V208ZM336 376C336 382.365 333.471 388.47 328.971 392.971C324.47 397.471 318.365 400 312 400H216C209.635 400 203.53 397.471 199.029 392.971C194.529 388.47 192 382.365 192 376V328C192 321.635 194.529 315.53 199.029 311.029C203.53 306.529 209.635 304 216 304H227.552C231.036 304.024 234.474 304.799 237.632 306.272C245.917 310.027 254.908 311.969 264.004 311.969C273.1 311.969 282.091 310.027 290.376 306.272C293.531 304.798 296.966 304.023 300.448 304H312C318.365 304 324.47 306.529 328.971 311.029C333.471 315.53 336 321.635 336 328V376ZM392 360C392 362.122 391.157 364.157 389.657 365.657C388.157 367.157 386.122 368 384 368C381.878 368 379.843 367.157 378.343 365.657C376.843 364.157 376 362.122 376 360V256H360C357.878 256 355.843 255.157 354.343 253.657C352.843 252.157 352 250.122 352 248C352 245.878 352.843 243.843 354.343 242.343C355.843 240.843 357.878 240 360 240H384C386.122 240 388.157 240.843 389.657 242.343C391.157 243.843 392 245.878 392 248V360Z" fill="#71D8C2"/>
<path d="M120 184C134.24 184 148.161 179.777 160.001 171.866C171.841 163.954 181.07 152.71 186.519 139.553C191.969 126.397 193.395 111.92 190.617 97.9535C187.838 83.9869 180.981 71.1577 170.912 61.0883C160.842 51.019 148.013 44.1616 134.047 41.3835C120.08 38.6054 105.603 40.0312 92.4468 45.4807C79.2905 50.9302 68.0457 60.1586 60.1342 71.999C52.2227 83.8393 48 97.7598 48 112C48.0233 131.088 55.6165 149.388 69.114 162.886C82.6116 176.384 100.912 183.977 120 184ZM120 56C131.076 56 141.903 59.2844 151.112 65.4377C160.321 71.5911 167.499 80.3371 171.737 90.5698C175.976 100.802 177.085 112.062 174.924 122.925C172.763 133.788 167.43 143.766 159.598 151.598C151.766 159.43 141.788 164.763 130.925 166.924C120.062 169.085 108.802 167.976 98.5697 163.737C88.3371 159.499 79.5911 152.321 73.4377 143.112C67.2843 133.903 64 123.076 64 112C64.0169 97.1531 69.9224 82.9191 80.4207 72.4208C90.9191 61.9224 105.153 56.017 120 56V56Z" fill="#009C75"/>
<path d="M296 152C310.24 152 324.161 147.777 336.001 139.866C347.841 131.954 357.07 120.71 362.519 107.553C367.969 94.397 369.395 79.9202 366.617 65.9535C363.838 51.9869 356.981 39.1577 346.912 29.0883C336.842 19.019 324.013 12.1616 310.047 9.38349C296.08 6.60536 281.603 8.0312 268.447 13.4807C255.291 18.9302 244.046 28.1586 236.134 39.999C228.223 51.8393 224 65.7598 224 80C224.023 99.0885 231.616 117.388 245.114 130.886C258.612 144.384 276.912 151.977 296 152ZM296 24C307.076 24 317.903 27.2844 327.112 33.4377C336.321 39.5911 343.499 48.3371 347.737 58.5698C351.976 68.8024 353.085 80.0622 350.924 90.9251C348.763 101.788 343.43 111.766 335.598 119.598C327.766 127.43 317.788 132.763 306.925 134.924C296.062 137.085 284.802 135.976 274.57 131.737C264.337 127.499 255.591 120.321 249.438 111.112C243.284 101.903 240 91.0758 240 80C240.017 65.1531 245.922 50.9191 256.421 40.4208C266.919 29.9224 281.153 24.017 296 24V24Z" fill="#009C75"/>
<path d="M384 168H338.944C336.027 168.004 333.136 168.546 330.416 169.6C308.262 178.055 283.77 178.055 261.616 169.6C258.896 168.546 256.005 168.004 253.088 168H208C201.635 168 195.53 170.529 191.029 175.029C186.529 179.53 184 185.635 184 192V200H162.944C160.027 200.004 157.136 200.546 154.416 201.6C132.262 210.055 107.77 210.055 85.616 201.6C82.8861 200.542 79.9837 200 77.056 200H32C25.6348 200 19.5303 202.529 15.0294 207.029C10.5286 211.53 8 217.635 8 224V336C8 342.365 10.5286 348.47 15.0294 352.971C19.5303 357.471 25.6348 360 32 360H208C214.365 360 220.47 357.471 224.971 352.971C229.471 348.47 232 342.365 232 336V328H384C390.365 328 396.47 325.471 400.971 320.971C405.471 316.47 408 310.365 408 304V192C408 185.635 405.471 179.53 400.971 175.029C396.47 170.529 390.365 168 384 168ZM208 344H32C29.8783 344 27.8434 343.157 26.3431 341.657C24.8429 340.157 24 338.122 24 336V224C24 221.878 24.8429 219.843 26.3431 218.343C27.8434 216.843 29.8783 216 32 216H77.056C78.01 216.012 78.9536 216.199 79.84 216.552C105.699 226.432 134.293 226.432 160.152 216.552C161.04 216.194 161.987 216.004 162.944 215.992H208C210.122 215.992 212.157 216.835 213.657 218.335C215.157 219.835 216 221.87 216 223.992V336C216 338.122 215.157 340.157 213.657 341.657C212.157 343.157 210.122 344 208 344ZM392 304C392 306.122 391.157 308.157 389.657 309.657C388.157 311.157 386.122 312 384 312H232V224C232 217.635 229.471 211.53 224.971 207.029C220.47 202.529 214.365 200 208 200H200V192C200 189.878 200.843 187.843 202.343 186.343C203.843 184.843 205.878 184 208 184H253.056C254.01 184.012 254.954 184.199 255.84 184.552C281.699 194.432 310.293 194.432 336.152 184.552C337.04 184.194 337.987 184.004 338.944 183.992H384C386.122 183.992 388.157 184.835 389.657 186.335C391.157 187.835 392 189.87 392 191.992V304Z" fill="#009C75"/>
</svg>
