<svg width="512" height="512" viewBox="0 0 512 512" fill="none" xmlns="http://www.w3.org/2000/svg">
<path d="M480 136H128C121.635 136 115.53 138.529 111.029 143.029C106.529 147.53 104 153.635 104 160V400C104 406.365 106.529 412.47 111.029 416.971C115.53 421.471 121.635 424 128 424H168V496C168 497.428 168.382 498.83 169.107 500.06C169.832 501.291 170.873 502.305 172.122 502.997C173.371 503.689 174.782 504.035 176.21 503.997C177.638 503.96 179.029 503.541 180.24 502.784L304.344 425.184C305.615 424.389 307.085 423.968 308.584 423.968H480C486.365 423.968 492.47 421.439 496.971 416.939C501.471 412.438 504 406.333 504 399.968V160C504 153.635 501.471 147.53 496.971 143.029C492.47 138.529 486.365 136 480 136ZM308.12 350.856C306.876 351.604 305.452 351.998 304 351.998C302.548 351.998 301.124 351.604 299.88 350.856C297.112 349.192 232 309.424 232 248C232 239.605 234.641 231.422 239.55 224.612C244.459 217.801 251.386 212.708 259.351 210.053C267.315 207.398 275.913 207.316 283.927 209.819C291.94 212.323 298.963 217.284 304 224C309.037 217.284 316.06 212.323 324.073 209.819C332.087 207.316 340.685 207.398 348.649 210.053C356.614 212.708 363.541 217.801 368.45 224.612C373.358 231.422 376 239.605 376 248C376 309.424 310.888 349.192 308.12 350.856Z" fill="#71D8C2"/>
<path d="M382.544 104H339.72C342.513 96.3045 343.961 88.1861 344 79.9998C344.016 64.0316 338.723 48.5112 328.954 35.88C319.185 23.2488 305.494 14.2235 290.034 10.2238C274.575 6.22409 258.225 7.47697 243.556 13.7853C228.887 20.0937 216.731 31.0996 209 45.0718C200.314 29.1694 185.944 17.1327 168.765 11.3696C151.586 5.60644 132.865 6.54178 116.346 13.9885C99.8265 21.4352 86.728 34.8442 79.6703 51.5332C72.6126 68.2221 72.116 86.9605 78.28 104H33.48C26.7877 103.942 20.3461 106.542 15.569 111.229C10.7918 115.917 8.06969 122.308 8 129V367C8.06969 373.688 10.7886 380.075 15.5605 384.762C20.3324 389.448 26.7679 392.051 33.456 392H382.544C389.232 392.051 395.668 389.448 400.44 384.762C405.211 380.075 407.93 373.688 408 367V129C407.93 122.312 405.211 115.924 400.44 111.238C395.668 106.552 389.232 103.949 382.544 104ZM272 23.9998C286.847 24.0167 301.081 29.9222 311.579 40.4205C322.078 50.9189 327.983 65.1529 328 79.9998C328.018 88.3066 326.161 96.5104 322.568 104H303.792C309.086 97.1167 311.971 88.6835 312 79.9998C312.007 71.6088 309.373 63.4284 304.471 56.6185C299.568 49.8086 292.646 44.7147 284.687 42.0591C276.727 39.4035 268.133 39.3209 260.124 41.8231C252.115 44.3253 245.096 49.2853 240.064 55.9998H221.368C225.912 46.4196 233.083 38.3265 242.046 32.6616C251.009 26.9968 261.397 23.9931 272 23.9998ZM178 104V71.9998H240V104H178ZM122 79.9998C121.973 75.5127 123.211 71.1089 125.574 67.2941C127.936 63.4792 131.327 60.408 135.356 58.4331C139.385 56.4582 143.89 55.6597 148.352 56.1293C152.815 56.5989 157.054 58.3175 160.584 61.0878C159.632 63.4878 160 96.7038 160 99.3438C156.438 101.97 152.216 103.553 147.806 103.917C143.396 104.28 138.972 103.409 135.029 101.402C131.085 99.3945 127.778 96.3295 125.477 92.5498C123.176 88.7701 121.972 84.4247 122 79.9998V79.9998ZM256 97.8478C256 96.4478 256.112 63.6718 255.824 62.3038C259.25 59.1632 263.515 57.0851 268.099 56.3218C272.684 55.5585 277.392 56.1428 281.651 58.0038C285.91 59.8649 289.537 62.9225 292.091 66.8054C294.646 70.6883 296.018 75.2293 296.041 79.8771C296.064 84.5248 294.737 89.0793 292.221 92.9873C289.705 96.8953 286.108 99.9887 281.868 101.892C277.628 103.795 272.926 104.426 268.334 103.708C263.742 102.99 259.457 100.954 256 97.8478V97.8478ZM90 79.9998C89.9829 67.2716 94.3024 54.9172 102.247 44.9726C110.191 35.0279 121.286 28.0862 133.703 25.2913C146.121 22.4964 159.12 24.0151 170.559 29.5972C181.998 35.1793 191.194 44.4916 196.632 55.9998H177.936C172.904 49.2853 165.885 44.3253 157.876 41.8231C149.867 39.3209 141.273 39.4035 133.313 42.0591C125.354 44.7147 118.432 49.8086 113.529 56.6185C108.627 63.4284 105.993 71.6088 106 79.9998C106.029 88.6835 108.914 97.1167 114.208 104H95.432C91.8386 96.5104 89.9818 88.3066 90 79.9998V79.9998ZM24 367V129C24.065 126.554 25.0966 124.233 26.8689 122.547C28.6413 120.86 31.0099 119.944 33.456 120H200V376H33.456C31.0099 376.056 28.6413 375.14 26.8689 373.453C25.0966 371.766 24.065 369.446 24 367V367ZM392 367C391.935 369.446 390.903 371.766 389.131 373.453C387.359 375.14 384.99 376.056 382.544 376H216V120H382.544C384.99 119.944 387.359 120.86 389.131 122.547C390.903 124.233 391.935 126.554 392 129V367Z" fill="#009C75"/>
</svg>
