<svg width="512" height="512" viewBox="0 0 512 512" fill="none" xmlns="http://www.w3.org/2000/svg">
<path d="M383.52 136C368.544 135.6 353.64 138.199 339.684 143.643C325.727 149.088 313 157.269 302.252 167.704C291.503 178.14 282.95 190.619 277.095 204.409C271.241 218.198 268.203 233.019 268.16 248C268.16 250.122 267.317 252.157 265.817 253.657C264.317 255.157 262.282 256 260.16 256C258.038 256 256.003 255.157 254.503 253.657C253.003 252.157 252.16 250.122 252.16 248C252.155 230.86 255.602 213.895 262.295 198.116C268.989 182.337 278.792 168.068 291.12 156.16C271.408 142.958 248.205 135.939 224.48 136C192.497 136.085 161.854 148.849 139.268 171.494C116.683 194.14 104 224.817 104 256.8C104 403.28 292.4 499.12 300.4 503.12C301.513 503.696 302.747 503.996 304 503.996C305.253 503.996 306.487 503.696 307.6 503.12C315.6 499.12 504 403.28 504 256.8C504 224.817 491.317 194.14 468.732 171.494C446.146 148.849 415.503 136.085 383.52 136V136ZM460.4 287.84C459.364 287.664 458.374 287.283 457.487 286.718C456.601 286.153 455.837 285.416 455.241 284.551C454.644 283.686 454.227 282.71 454.014 281.681C453.801 280.652 453.796 279.591 454 278.56C455.293 271.378 455.962 264.097 456 256.8C456.03 237.539 448.413 219.053 434.823 205.403C421.233 191.753 402.781 184.055 383.52 184C381.398 184 379.363 183.157 377.863 181.657C376.363 180.157 375.52 178.122 375.52 176C375.52 173.878 376.363 171.843 377.863 170.343C379.363 168.843 381.398 168 383.52 168C407.021 168.068 429.535 177.455 446.123 194.103C462.711 210.751 472.017 233.299 472 256.8C471.974 265.067 471.198 273.314 469.68 281.44C469.291 283.516 468.097 285.353 466.359 286.552C464.62 287.751 462.478 288.214 460.4 287.84V287.84Z" fill="#71D8C2"/>
<path d="M384 8H32C25.6348 8 19.5303 10.5286 15.0294 15.0294C10.5286 19.5303 8 25.6348 8 32V256C8 262.365 10.5286 268.47 15.0294 272.971C19.5303 277.471 25.6348 280 32 280H137.368C138.42 279.999 139.462 280.206 140.433 280.608C141.405 281.01 142.288 281.6 143.032 282.344L202.344 341.656C203.844 343.156 205.879 343.998 208 343.998C210.121 343.998 212.156 343.156 213.656 341.656L272.968 282.344C273.712 281.6 274.595 281.01 275.567 280.608C276.538 280.206 277.58 279.999 278.632 280H384C390.365 280 396.47 277.471 400.971 272.971C405.471 268.47 408 262.365 408 256V32C408 25.6348 405.471 19.5303 400.971 15.0294C396.47 10.5286 390.365 8 384 8V8ZM392 256C392 258.122 391.157 260.157 389.657 261.657C388.157 263.157 386.122 264 384 264H278.632C275.478 263.99 272.353 264.606 269.439 265.814C266.525 267.021 263.879 268.794 261.656 271.032L208 324.688L154.344 271.032C152.121 268.794 149.475 267.021 146.561 265.814C143.647 264.606 140.522 263.99 137.368 264H32C29.8783 264 27.8434 263.157 26.3431 261.657C24.8429 260.157 24 258.122 24 256V32C24 29.8783 24.8429 27.8434 26.3431 26.3431C27.8434 24.8429 29.8783 24 32 24H384C386.122 24 388.157 24.8429 389.657 26.3431C391.157 27.8434 392 29.8783 392 32V256Z" fill="#009C75"/>
<path d="M304 80H280C277.878 80 275.843 80.8429 274.343 82.3431C272.843 83.8434 272 85.8783 272 88C272 90.1217 272.843 92.1566 274.343 93.6569C275.843 95.1571 277.878 96 280 96H296V200C296 202.122 296.843 204.157 298.343 205.657C299.843 207.157 301.878 208 304 208C306.122 208 308.157 207.157 309.657 205.657C311.157 204.157 312 202.122 312 200V88C312 85.8783 311.157 83.8434 309.657 82.3431C308.157 80.8429 306.122 80 304 80Z" fill="#009C75"/>
<path d="M173.824 64C162.965 64.0036 152.436 67.7373 144 74.576C135.564 67.7373 125.036 64.0036 114.176 64C100.356 64.5602 87.3192 70.5694 77.9168 80.7139C68.5144 90.8584 63.5108 104.313 64.0001 118.136C63.8901 132.172 69.0452 145.739 78.4481 156.16L138.096 221.4C138.846 222.22 139.758 222.874 140.774 223.322C141.791 223.77 142.889 224.002 144 224.002C145.111 224.002 146.209 223.77 147.226 223.322C148.242 222.874 149.155 222.22 149.904 221.4L209.552 156.152C218.956 145.735 224.111 132.17 224 118.136C224.489 104.313 219.486 90.8584 210.083 80.7139C200.681 70.5694 187.644 64.5602 173.824 64V64ZM197.744 145.36L144 204.144L90.2561 145.36C83.5566 137.885 79.8978 128.173 80.0001 118.136C79.515 108.557 82.8345 99.1739 89.2357 92.031C95.6369 84.8881 104.601 80.5638 114.176 80C118.706 80.0368 123.177 81.0275 127.299 82.9076C131.42 84.7877 135.099 87.5151 138.096 90.912C138.865 91.6986 139.783 92.3237 140.797 92.7504C141.811 93.1772 142.9 93.397 144 93.397C145.1 93.397 146.189 93.1772 147.203 92.7504C148.217 92.3237 149.135 91.6986 149.904 90.912C152.901 87.5151 156.58 84.7877 160.702 82.9076C164.823 81.0275 169.294 80.0368 173.824 80C183.399 80.5638 192.363 84.8881 198.764 92.031C205.166 99.1739 208.485 108.557 208 118.136C208.102 128.173 204.444 137.885 197.744 145.36V145.36Z" fill="#009C75"/>
</svg>
