<svg width="512" height="512" viewBox="0 0 512 512" fill="none" xmlns="http://www.w3.org/2000/svg">
<path d="M432 92H176C169.635 92 163.53 94.5286 159.029 99.0294C154.529 103.53 152 109.635 152 116V221.168L304 297.168L456 221.168V116C456 109.635 453.471 103.53 448.971 99.0294C444.47 94.5286 438.365 92 432 92ZM216 140H392C394.122 140 396.157 140.843 397.657 142.343C399.157 143.843 400 145.878 400 148C400 150.122 399.157 152.157 397.657 153.657C396.157 155.157 394.122 156 392 156H216C213.878 156 211.843 155.157 210.343 153.657C208.843 152.157 208 150.122 208 148C208 145.878 208.843 143.843 210.343 142.343C211.843 140.843 213.878 140 216 140ZM400 204H208C205.878 204 203.843 203.157 202.343 201.657C200.843 200.157 200 198.122 200 196C200 193.878 200.843 191.843 202.343 190.343C203.843 188.843 205.878 188 208 188H400C402.122 188 404.157 188.843 405.657 190.343C407.157 191.843 408 193.878 408 196C408 198.122 407.157 200.157 405.657 201.657C404.157 203.157 402.122 204 400 204Z" fill="#71D8C2"/>
<path d="M492.424 220.84L304 315.056L115.576 220.84C114.356 220.23 113 219.943 111.638 220.004C110.276 220.066 108.952 220.475 107.792 221.192C106.632 221.91 105.675 222.912 105.011 224.103C104.347 225.295 103.999 226.636 104 228V468C104 474.365 106.529 480.469 111.029 484.97C115.53 489.471 121.635 492 128 492H480C486.365 492 492.47 489.471 496.971 484.97C501.471 480.469 504 474.365 504 468V228C504.001 226.636 503.653 225.295 502.989 224.103C502.325 222.912 501.368 221.91 500.208 221.192C499.048 220.475 497.724 220.066 496.362 220.004C495 219.943 493.644 220.23 492.424 220.84V220.84ZM464 460H304C301.878 460 299.843 459.157 298.343 457.657C296.843 456.156 296 454.122 296 452C296 449.878 296.843 447.843 298.343 446.343C299.843 444.843 301.878 444 304 444H464C466.122 444 468.157 444.843 469.657 446.343C471.157 447.843 472 449.878 472 452C472 454.122 471.157 456.156 469.657 457.657C468.157 459.157 466.122 460 464 460ZM464 428H368C365.878 428 363.843 427.157 362.343 425.657C360.843 424.156 360 422.122 360 420C360 417.878 360.843 415.843 362.343 414.343C363.843 412.843 365.878 412 368 412H464C466.122 412 468.157 412.843 469.657 414.343C471.157 415.843 472 417.878 472 420C472 422.122 471.157 424.156 469.657 425.657C468.157 427.157 466.122 428 464 428Z" fill="#71D8C2"/>
<path d="M376.176 66.336C354.4 54.568 330.848 59.512 312 78.488V44C312 37.6348 309.471 31.5303 304.971 27.0294C300.47 22.5286 294.365 20 288 20H32C25.6348 20 19.5303 22.5286 15.0294 27.0294C10.5286 31.5303 8 37.6348 8 44V372C8 378.365 10.5286 384.47 15.0294 388.971C19.5303 393.471 25.6348 396 32 396H288C294.365 396 300.47 393.471 304.971 388.971C309.471 384.47 312 378.365 312 372V241.488C367.072 220.208 408 173.2 408 130.152V121.648C408.177 110.415 405.313 99.3438 399.71 89.6064C394.108 79.869 385.976 71.8283 376.176 66.336V66.336ZM296 372C296 374.122 295.157 376.157 293.657 377.657C292.157 379.157 290.122 380 288 380H32C29.8783 380 27.8434 379.157 26.3431 377.657C24.8429 376.157 24 374.122 24 372V44C24 41.8783 24.8429 39.8434 26.3431 38.3431C27.8434 36.8429 29.8783 36 32 36H288C290.122 36 292.157 36.8429 293.657 38.3431C295.157 39.8434 296 41.8783 296 44V78.504C277.16 59.528 253.6 54.584 231.824 66.336C222.024 71.8283 213.892 79.869 208.29 89.6064C202.687 99.3438 199.823 110.415 200 121.648V130.152C200 173.2 240.92 220.208 296 241.488V372ZM392 130.152C392 162.4 359.152 207.2 304 227.504C248.856 207.2 216 162.4 216 130.152V121.648C215.824 113.301 217.909 105.062 222.034 97.8031C226.159 90.5445 232.171 84.5367 239.432 80.416C262.584 67.88 283.704 83.24 297.088 106.304C297.791 107.516 298.801 108.523 300.015 109.222C301.23 109.922 302.606 110.29 304.008 110.29C305.41 110.29 306.786 109.922 308.001 109.222C309.215 108.523 310.225 107.516 310.928 106.304C326.712 79.104 348.28 69.44 368.528 80.416C375.797 84.5314 381.816 90.537 385.948 97.796C390.081 105.055 392.172 113.297 392 121.648V130.152Z" fill="#009C75"/>
<path d="M88 180H176C178.122 180 180.157 179.157 181.657 177.657C183.157 176.157 184 174.122 184 172C184 169.878 183.157 167.843 181.657 166.343C180.157 164.843 178.122 164 176 164H88C85.8783 164 83.8434 164.843 82.3431 166.343C80.8429 167.843 80 169.878 80 172C80 174.122 80.8429 176.157 82.3431 177.657C83.8434 179.157 85.8783 180 88 180V180Z" fill="#009C75"/>
<path d="M88 108H176C178.122 108 180.157 107.157 181.657 105.657C183.157 104.157 184 102.122 184 100C184 97.8783 183.157 95.8434 181.657 94.3431C180.157 92.8429 178.122 92 176 92H88C85.8783 92 83.8434 92.8429 82.3431 94.3431C80.8429 95.8434 80 97.8783 80 100C80 102.122 80.8429 104.157 82.3431 105.657C83.8434 107.157 85.8783 108 88 108V108Z" fill="#009C75"/>
<path d="M88 236C85.8783 236 83.8434 236.843 82.3431 238.343C80.8429 239.843 80 241.878 80 244C80 246.122 80.8429 248.157 82.3431 249.657C83.8434 251.157 85.8783 252 88 252H232C234.122 252 236.157 251.157 237.657 249.657C239.157 248.157 240 246.122 240 244C240 241.878 239.157 239.843 237.657 238.343C236.157 236.843 234.122 236 232 236H88Z" fill="#009C75"/>
<path d="M232 324H88C85.8783 324 83.8434 323.157 82.3431 321.657C80.8429 320.157 80 318.122 80 316C80 313.878 80.8429 311.843 82.3431 310.343C83.8434 308.843 85.8783 308 88 308H232C234.122 308 236.157 308.843 237.657 310.343C239.157 311.843 240 313.878 240 316C240 318.122 239.157 320.157 237.657 321.657C236.157 323.157 234.122 324 232 324Z" fill="#009C75"/>
</svg>
