<svg width="512" height="512" viewBox="0 0 512 512" fill="none" xmlns="http://www.w3.org/2000/svg">
<path d="M112 464H264C264 474.609 268.214 484.783 275.716 492.284C283.217 499.786 293.392 504 304 504C314.609 504 324.783 499.786 332.284 492.284C339.786 484.783 344 474.609 344 464H496C497.701 463.996 499.356 463.45 500.726 462.441C502.095 461.433 503.107 460.014 503.616 458.391C504.124 456.768 504.102 455.025 503.552 453.416C503.003 451.806 501.955 450.413 500.56 449.44C500.56 449.44 456.56 416.96 456 320V288C456.105 253.239 444.229 219.505 422.372 192.475C400.515 165.446 370.013 146.773 336 139.6V136C336 127.513 332.629 119.374 326.628 113.373C320.626 107.371 312.487 104 304 104C295.513 104 287.374 107.371 281.373 113.373C275.372 119.374 272 127.513 272 136V139.52C238.002 146.751 207.523 165.451 185.675 192.484C163.827 219.518 151.937 253.241 152 288V320C151.44 416.96 107.84 449.12 107.44 449.44C106.046 450.413 104.997 451.806 104.448 453.416C103.899 455.025 103.876 456.768 104.385 458.391C104.893 460.014 105.905 461.433 107.275 462.441C108.644 463.45 110.299 463.996 112 464V464ZM320 136.88C319.2 136.88 311.52 136.16 305.44 136.08C299.36 136 290.8 136.56 288 136.88C287.883 132.637 289.457 128.521 292.375 125.437C295.293 122.354 299.317 120.557 303.56 120.44C307.804 120.323 311.92 121.897 315.003 124.815C318.086 127.733 319.883 131.757 320 136V136.88ZM304 184C301.878 184 299.844 183.157 298.343 181.657C296.843 180.157 296 178.122 296 176C296 173.878 296.843 171.843 298.343 170.343C299.844 168.843 301.878 168 304 168C335.826 168 366.349 180.643 388.853 203.147C411.357 225.652 424 256.174 424 288C424 290.122 423.157 292.157 421.657 293.657C420.157 295.157 418.122 296 416 296C413.878 296 411.844 295.157 410.343 293.657C408.843 292.157 408 290.122 408 288C408 260.417 397.043 233.965 377.539 214.461C358.035 194.957 331.583 184 304 184V184Z" fill="#71D8C2"/>
<path d="M405.12 169.84L344 118.88V16C344 13.8783 343.157 11.8434 341.657 10.3431C340.157 8.84285 338.122 8 336 8H80C77.8783 8 75.8434 8.84285 74.3431 10.3431C72.8429 11.8434 72 13.8783 72 16V118.88C58.08 130.48 11.76 169.04 10.56 170.16C9.7557 170.906 9.1134 171.809 8.67301 172.814C8.23261 173.819 8.00353 174.903 8 176V384C8 390.365 10.5286 396.47 15.0294 400.971C19.5303 405.471 25.6348 408 32 408H384C390.365 408 396.47 405.471 400.971 400.971C405.471 396.47 408 390.365 408 384V176C408.002 174.825 407.745 173.663 407.247 172.599C406.749 171.534 406.023 170.592 405.12 169.84V169.84ZM385.52 174.32L344 195.04V139.76L385.52 174.32ZM88 24H328V203.04L208 263.04L88 203.04V24ZM72 139.76V195.04L30.48 174.32L72 139.76ZM384 392H32C29.8783 392 27.8434 391.157 26.3431 389.657C24.8429 388.157 24 386.122 24 384V188.96L204.4 279.12C205.517 279.683 206.75 279.976 208 279.976C209.25 279.976 210.483 279.683 211.6 279.12L392 188.96V384C392 386.122 391.157 388.157 389.657 389.657C388.157 391.157 386.122 392 384 392Z" fill="#009C75"/>
<path d="M144 120H272C274.122 120 276.157 119.157 277.657 117.657C279.157 116.157 280 114.122 280 112C280 109.878 279.157 107.843 277.657 106.343C276.157 104.843 274.122 104 272 104H144C141.878 104 139.843 104.843 138.343 106.343C136.843 107.843 136 109.878 136 112C136 114.122 136.843 116.157 138.343 117.657C139.843 119.157 141.878 120 144 120Z" fill="#009C75"/>
<path d="M144 184H272C274.122 184 276.157 183.157 277.657 181.657C279.157 180.157 280 178.122 280 176C280 173.878 279.157 171.843 277.657 170.343C276.157 168.843 274.122 168 272 168H144C141.878 168 139.843 168.843 138.343 170.343C136.843 171.843 136 173.878 136 176C136 178.122 136.843 180.157 138.343 181.657C139.843 183.157 141.878 184 144 184Z" fill="#009C75"/>
<path d="M120 344H48C45.8783 344 43.8434 343.157 42.3431 341.657C40.8429 340.157 40 338.122 40 336C40 333.878 40.8429 331.843 42.3431 330.343C43.8434 328.843 45.8783 328 48 328H120C122.122 328 124.157 328.843 125.657 330.343C127.157 331.843 128 333.878 128 336C128 338.122 127.157 340.157 125.657 341.657C124.157 343.157 122.122 344 120 344Z" fill="#009C75"/>
<path d="M168 376H48C45.8783 376 43.8434 375.157 42.3431 373.657C40.8429 372.157 40 370.122 40 368C40 365.878 40.8429 363.843 42.3431 362.343C43.8434 360.843 45.8783 360 48 360H168C170.122 360 172.157 360.843 173.657 362.343C175.157 363.843 176 365.878 176 368C176 370.122 175.157 372.157 173.657 373.657C172.157 375.157 170.122 376 168 376Z" fill="#009C75"/>
</svg>
