<svg width="512" height="512" viewBox="0 0 512 512" fill="none" xmlns="http://www.w3.org/2000/svg">
<path d="M248 172H176C169.635 172 163.53 174.529 159.029 179.029C154.529 183.53 152 189.635 152 196V452C152 458.365 154.529 464.47 159.029 468.971C163.53 473.471 169.635 476 176 476H248V172Z" fill="#71D8C2"/>
<path d="M352 220C352 222.122 352.843 224.157 354.343 225.657C355.843 227.157 357.878 228 360 228H400C402.122 228 404.157 227.157 405.657 225.657C407.157 224.157 408 222.122 408 220V172H352V220Z" fill="#71D8C2"/>
<path d="M504 196C504 189.635 501.471 183.53 496.971 179.029C492.47 174.529 486.365 172 480 172H424V220C424 226.365 421.471 232.47 416.971 236.971C412.47 241.471 406.365 244 400 244H360C353.635 244 347.53 241.471 343.029 236.971C338.529 232.47 336 226.365 336 220V172H264V476H480C486.365 476 492.47 473.471 496.971 468.971C501.471 464.47 504 458.365 504 452V196ZM448 428H400C397.878 428 395.843 427.157 394.343 425.657C392.843 424.157 392 422.122 392 420C392 417.878 392.843 415.843 394.343 414.343C395.843 412.843 397.878 412 400 412H448C450.122 412 452.157 412.843 453.657 414.343C455.157 415.843 456 417.878 456 420C456 422.122 455.157 424.157 453.657 425.657C452.157 427.157 450.122 428 448 428ZM448 396H376C373.878 396 371.843 395.157 370.343 393.657C368.843 392.157 368 390.122 368 388C368 385.878 368.843 383.843 370.343 382.343C371.843 380.843 373.878 380 376 380H448C450.122 380 452.157 380.843 453.657 382.343C455.157 383.843 456 385.878 456 388C456 390.122 455.157 392.157 453.657 393.657C452.157 395.157 450.122 396 448 396Z" fill="#71D8C2"/>
<path d="M352 124H142.864C141.118 117.139 137.136 111.056 131.546 106.711C125.957 102.366 119.079 100.007 112 100.007C104.921 100.007 98.043 102.366 92.4537 106.711C86.8645 111.056 82.8822 117.139 81.136 124H64C61.8783 124 59.8434 124.843 58.3431 126.343C56.8429 127.843 56 129.878 56 132C56 134.122 56.8429 136.156 58.3431 137.657C59.8434 139.157 61.8783 140 64 140H81.136C82.8822 146.861 86.8645 152.944 92.4537 157.289C98.043 161.634 104.921 163.992 112 163.992C119.079 163.992 125.957 161.634 131.546 157.289C137.136 152.944 141.118 146.861 142.864 140H352C354.122 140 356.157 139.157 357.657 137.657C359.157 136.156 360 134.122 360 132C360 129.878 359.157 127.843 357.657 126.343C356.157 124.843 354.122 124 352 124ZM112 148C108.835 148 105.742 147.061 103.111 145.303C100.48 143.545 98.4289 141.046 97.2179 138.123C96.0069 135.199 95.6901 131.982 96.3074 128.878C96.9248 125.775 98.4487 122.924 100.686 120.686C102.924 118.448 105.775 116.925 108.879 116.307C111.982 115.69 115.199 116.007 118.123 117.218C121.047 118.429 123.545 120.48 125.304 123.111C127.062 125.742 128 128.835 128 132C128 136.243 126.314 140.313 123.314 143.314C120.313 146.314 116.243 148 112 148Z" fill="#009C75"/>
<path d="M352 212H334.864C333.118 205.139 329.136 199.056 323.546 194.711C317.957 190.366 311.079 188.007 304 188.007C296.921 188.007 290.043 190.366 284.454 194.711C278.864 199.056 274.882 205.139 273.136 212H64C61.8783 212 59.8434 212.843 58.3431 214.343C56.8429 215.843 56 217.878 56 220C56 222.122 56.8429 224.156 58.3431 225.657C59.8434 227.157 61.8783 228 64 228H273.136C274.882 234.861 278.864 240.944 284.454 245.289C290.043 249.634 296.921 251.992 304 251.992C311.079 251.992 317.957 249.634 323.546 245.289C329.136 240.944 333.118 234.861 334.864 228H352C354.122 228 356.157 227.157 357.657 225.657C359.157 224.156 360 222.122 360 220C360 217.878 359.157 215.843 357.657 214.343C356.157 212.843 354.122 212 352 212ZM304 236C300.835 236 297.742 235.061 295.111 233.303C292.48 231.545 290.429 229.046 289.218 226.123C288.007 223.199 287.69 219.982 288.307 216.878C288.925 213.775 290.449 210.924 292.686 208.686C294.924 206.449 297.775 204.925 300.879 204.307C303.982 203.69 307.199 204.007 310.123 205.218C313.047 206.429 315.545 208.48 317.304 211.111C319.062 213.742 320 216.835 320 220C320 224.243 318.314 228.313 315.314 231.314C312.313 234.314 308.243 236 304 236Z" fill="#009C75"/>
<path d="M352 300H142.864C141.118 293.139 137.136 287.056 131.546 282.711C125.957 278.366 119.079 276.007 112 276.007C104.921 276.007 98.043 278.366 92.4537 282.711C86.8645 287.056 82.8822 293.139 81.136 300H64C61.8783 300 59.8434 300.843 58.3431 302.343C56.8429 303.843 56 305.878 56 308C56 310.122 56.8429 312.156 58.3431 313.657C59.8434 315.157 61.8783 316 64 316H81.136C82.8822 322.861 86.8645 328.944 92.4537 333.289C98.043 337.634 104.921 339.992 112 339.992C119.079 339.992 125.957 337.634 131.546 333.289C137.136 328.944 141.118 322.861 142.864 316H352C354.122 316 356.157 315.157 357.657 313.657C359.157 312.156 360 310.122 360 308C360 305.878 359.157 303.843 357.657 302.343C356.157 300.843 354.122 300 352 300ZM112 324C108.835 324 105.742 323.061 103.111 321.303C100.48 319.545 98.4289 317.046 97.2179 314.123C96.0069 311.199 95.6901 307.982 96.3074 304.878C96.9248 301.775 98.4487 298.924 100.686 296.686C102.924 294.448 105.775 292.925 108.879 292.307C111.982 291.69 115.199 292.007 118.123 293.218C121.047 294.429 123.545 296.48 125.304 299.111C127.062 301.742 128 304.835 128 308C128 312.243 126.314 316.313 123.314 319.314C120.313 322.314 116.243 324 112 324Z" fill="#009C75"/>
<path d="M384 36H32C25.6348 36 19.5303 38.5286 15.0294 43.0294C10.5286 47.5303 8 53.6348 8 60V380C8 386.365 10.5286 392.47 15.0294 396.971C19.5303 401.471 25.6348 404 32 404H384C390.365 404 396.47 401.471 400.971 396.971C405.471 392.47 408 386.365 408 380V60C408 53.6348 405.471 47.5303 400.971 43.0294C396.47 38.5286 390.365 36 384 36ZM392 380C392 382.122 391.157 384.157 389.657 385.657C388.157 387.157 386.122 388 384 388H32C29.8783 388 27.8434 387.157 26.3431 385.657C24.8429 384.157 24 382.122 24 380V60C24 57.8783 24.8429 55.8434 26.3431 54.3431C27.8434 52.8429 29.8783 52 32 52H384C386.122 52 388.157 52.8429 389.657 54.3431C391.157 55.8434 392 57.8783 392 60V380Z" fill="#009C75"/>
</svg>
