<svg width="512" height="512" viewBox="0 0 512 512" fill="none" xmlns="http://www.w3.org/2000/svg">
<path d="M400 484.72C375.227 497.362 347.812 503.953 320 503.953C292.188 503.953 264.772 497.362 240 484.72V464C240 442.783 248.428 422.434 263.431 407.431C278.434 392.429 298.783 384 320 384C341.217 384 361.566 392.429 376.568 407.431C391.571 422.434 400 442.783 400 464V484.72ZM320 152C282.103 152.05 245.235 164.331 214.878 187.017C184.522 209.702 162.298 241.58 151.512 277.909C140.727 314.239 141.956 353.079 155.016 388.654C168.076 424.229 192.27 454.639 224 475.36V464C224.044 445.256 229.575 426.934 239.911 411.296C250.246 395.658 264.933 383.388 282.16 376C262.983 367.347 247.352 352.382 237.871 333.601C228.39 314.82 225.633 293.357 230.058 272.789C234.484 252.221 245.825 233.792 262.192 220.572C278.558 207.353 298.961 200.142 320 200.142C341.038 200.142 361.441 207.353 377.808 220.572C394.174 233.792 405.516 252.221 409.941 272.789C414.367 293.357 411.61 314.82 402.129 333.601C392.648 352.382 377.016 367.347 357.84 376C375.067 383.388 389.754 395.658 400.089 411.296C410.424 426.934 415.955 445.256 416 464V475.36C447.73 454.639 471.924 424.229 484.984 388.654C498.044 353.079 499.273 314.239 488.487 277.909C477.702 241.58 455.478 209.702 425.121 187.017C394.765 164.331 357.896 152.05 320 152V152ZM396 292C396 276.969 391.543 262.275 383.192 249.777C374.841 237.279 362.971 227.537 349.084 221.785C335.197 216.033 319.916 214.528 305.173 217.46C290.43 220.393 276.889 227.631 266.26 238.26C255.631 248.889 248.393 262.431 245.46 277.173C242.528 291.916 244.033 307.197 249.785 321.084C255.537 334.971 265.278 346.841 277.777 355.192C290.275 363.543 304.969 368 320 368C340.15 367.979 359.468 359.965 373.717 345.717C387.965 331.469 395.979 312.15 396 292Z" fill="#71D8C2"/>
<path d="M392 8H40C33.6348 8 27.5303 10.5286 23.0294 15.0294C18.5286 19.5303 16 25.6348 16 32V384C16 390.365 18.5286 396.47 23.0294 400.971C27.5303 405.471 33.6348 408 40 408H392C398.365 408 404.47 405.471 408.971 400.971C413.471 396.47 416 390.365 416 384V32C416 25.6348 413.471 19.5303 408.971 15.0294C404.47 10.5286 398.365 8 392 8V8ZM80.4 392C82.2862 357.258 97.416 324.56 122.677 300.634C147.937 276.708 181.407 263.373 216.2 263.373C250.993 263.373 284.463 276.708 309.723 300.634C334.984 324.56 350.114 357.258 352 392H80.4ZM400.4 384C400.4 386.122 399.557 388.157 398.057 389.657C396.557 391.157 394.522 392 392.4 392H368C366.317 360.653 354.97 330.597 335.517 305.959C316.065 281.321 289.461 263.31 259.36 254.4C280.927 244.507 298.463 227.538 309.057 206.307C319.652 185.076 322.668 160.86 317.605 137.679C312.542 114.498 299.705 93.7449 281.223 78.8643C262.742 63.9836 239.728 55.8701 216 55.8701C192.272 55.8701 169.258 63.9836 150.777 78.8643C132.295 93.7449 119.458 114.498 114.395 137.679C109.332 160.86 112.348 185.076 122.943 206.307C133.537 227.538 151.073 244.507 172.64 254.4C142.614 263.379 116.097 281.42 96.7205 306.052C77.344 330.684 66.0553 360.704 64.4 392H40C37.8783 392 35.8434 391.157 34.3431 389.657C32.8429 388.157 32 386.122 32 384V32C32 29.8783 32.8429 27.8434 34.3431 26.3431C35.8434 24.8429 37.8783 24 40 24H392C394.122 24 396.157 24.8429 397.657 26.3431C399.157 27.8434 400 29.8783 400 32L400.4 384ZM216 248C198.595 248 181.581 242.839 167.11 233.169C152.638 223.5 141.359 209.756 134.699 193.676C128.038 177.596 126.295 159.902 129.691 142.832C133.086 125.762 141.468 110.082 153.775 97.7746C166.082 85.4676 181.762 77.0864 198.832 73.6909C215.902 70.2954 233.596 72.0381 249.676 78.6986C265.756 85.3591 279.5 96.6383 289.169 111.11C298.839 125.581 304 142.595 304 160C304 183.339 294.729 205.722 278.225 222.225C261.722 238.729 239.339 248 216 248V248Z" fill="#009C75"/>
</svg>
